<svg id="Layer_1" data-name="Layer 1" xmlns="http://www.w3.org/2000/svg" viewBox="0 0 116.78 107.85"><defs><style>.cls-1,.cls-2{fill:#bc1531;}.cls-1,.cls-3,.cls-5{stroke:#0b0d1a;stroke-miterlimit:10;stroke-width:4px;}.cls-3{fill:none;}.cls-4,.cls-5{fill:#ef1e37;}.cls-6{fill:#0b0d1a;}.cls-7{fill:#b70624;}.cls-8{fill:#ecf6f0;}</style></defs><circle class="cls-1" cx="54.78" cy="53" r="48"/><path class="cls-2" d="M87.49,58l-2,3.61,13.62,9.94h0a48.55,48.55,0,0,1-2.2,4.53L80.26,65.81,79,69.75l17,7.83a45.48,45.48,0,0,1-2.58,3.86L75.65,77v4.14l16.48,2a47.77,47.77,0,1,1,7.7-13.54Z"/><path class="cls-3" d="M87.49,58l-2,3.61,13.62,9.94h0a48.55,48.55,0,0,1-2.2,4.53L80.26,65.81,79,69.75l17,7.83a45.48,45.48,0,0,1-2.58,3.86L75.65,77v4.14l16.48,2a47.77,47.77,0,1,1,7.7-13.54Z"/><path class="cls-4" d="M108.06,85.06,92.13,83.15c.45-.56.89-1.13,1.31-1.71Z"/><path class="cls-4" d="M108.63,83.37,96,77.58c.29-.49.58-1,.85-1.49Z"/><path class="cls-4" d="M111.78,80.84,99.07,71.56h0c.27-.64.52-1.29.76-1.94Z"/><polygon class="cls-4" points="75.64 81.18 108.06 85.06 75.64 77.04 75.64 81.18"/><polygon class="cls-4" points="78.98 69.75 108.63 83.37 80.26 65.81 78.98 69.75"/><polygon class="cls-4" points="85.45 61.61 111.78 80.84 87.49 58 85.45 61.61"/><circle class="cls-5" cx="59.28" cy="50.5" r="36.5"/><path class="cls-6" d="M28.78,18s2,11,21,8,28.07,8.32,28.07,8.32S77.24,21,64,18C57.78,16,46,20,46,20S36.78,24,28.78,18Z"/><path class="cls-7" d="M50.28,66.92s12.62,8.92,17.56,0,9-12.35,8.48-26.63L83.78,42l1,20s-3.41,12-5.71,14.5-11.54,6.84-11.54,6.84L57.78,73l-8-5.29Z"/><path class="cls-6" d="M31,71.12s6.51-10.39,14.17-7.25S59.05,76.79,65.41,74.4,81.78,55,78.78,45s-17-15-24-11-28-6.23-32-14.62c0,0,15,5.62,21-.38s40-9,49,22S80.35,78.41,80.35,78.41,71.65,89.91,47.21,85C36.78,81,31,71.12,31,71.12Z"/><path class="cls-6" d="M39.15,64.92a7.81,7.81,0,0,0-2.53.47A44,44,0,0,0,28.78,69c-2.31,1.44-5.26,1.35-4.09,5.4,2.3,7.9,13.51,17,19.07,21.1a8.26,8.26,0,0,0,6.87,1.4C58.67,95,77,89.72,77.8,82s-7.29-8-10.8-7.75a8.1,8.1,0,0,0-2.55.64c-1.88.79-6.13,2.12-9-.45A57.87,57.87,0,0,0,47,68.34a8.28,8.28,0,0,1-1.58-1.25C44.62,66.26,42.71,64.9,39.15,64.92Z"/><path class="cls-4" d="M59,77a.65.65,0,0,1-.5.48,38.71,38.71,0,0,1-25.23-3.74.67.67,0,0,1-.17-1.07l.07-.06c2.09-2,8.53-7.47,14.89-3.47C54,72.89,56,75.22,58.6,76.21A.64.64,0,0,1,59,77Z"/><path class="cls-7" d="M59,77a.65.65,0,0,1-.5.48,38.71,38.71,0,0,1-25.23-3.74.67.67,0,0,1-.17-1.07l.07-.06C34.4,73.93,39.34,76.92,59,77Z"/><path class="cls-8" d="M34,40.73a2.88,2.88,0,0,0-2.21,1.37c-.87,1.37-2,4.26-2,9.9,0,3,3,2,3,1s0-7,2-10C35.61,42.17,35.75,40.64,34,40.73Z"/></svg>